<svg width="61" height="71" viewBox="0 0 61 71" fill="none" xmlns="http://www.w3.org/2000/svg">
<g clip-path="url(#clip0_15_244)">
<path d="M47.5953 31.0625C44.9561 31.0625 42.3762 31.9734 40.1819 33.68C37.9875 35.3866 36.2772 37.8122 35.2672 40.6502C34.2573 43.4882 33.993 46.611 34.5079 49.6238C35.0228 52.6365 36.2936 55.4039 38.1598 57.576C40.026 59.7481 42.4036 61.2273 44.992 61.8266C47.5804 62.4259 50.2634 62.1183 52.7017 60.9428C55.1399 59.7672 57.2239 57.7766 58.6902 55.2225C60.1564 52.6684 60.939 49.6655 60.939 46.5938L61 44.375C61 36.1367 58.1883 28.2358 53.1834 22.4105C48.1785 16.5851 41.3905 13.3125 34.3125 13.3125V22.1875C36.8169 22.1797 39.2978 22.7498 41.6118 23.8649C43.9257 24.98 46.0268 26.6179 47.7935 28.684C48.4802 29.4817 49.1136 30.3391 49.6883 31.2489C49.0059 31.1246 48.3082 31.0581 47.5991 31.0581L47.5953 31.0625ZM13.2827 31.0625C10.6436 31.0625 8.06373 31.9734 5.86936 33.68C3.67499 35.3866 1.96469 37.8122 0.954731 40.6502C-0.0552254 43.4882 -0.319477 46.611 0.195396 49.6238C0.710266 52.6365 1.98114 55.4039 3.84729 57.576C5.71345 59.7481 8.09108 61.2273 10.6795 61.8266C13.2679 62.4259 15.9509 62.1183 18.3892 60.9428C20.8274 59.7672 22.9114 57.7766 24.3777 55.2225C25.8439 52.6684 26.6265 49.6655 26.6265 46.5938L26.6875 44.375C26.6875 36.1367 23.8758 28.2358 18.8709 22.4105C13.866 16.5851 7.07796 13.3125 0 13.3125V22.1875C2.50443 22.1797 4.98534 22.7498 7.29928 23.8649C9.61323 24.98 11.7143 26.6179 13.481 28.684C14.1677 29.4817 14.8011 30.3391 15.3758 31.2489C14.6934 31.1246 13.9957 31.0581 13.2827 31.0581V31.0625Z" fill="white"/>
</g>
<defs>
<clipPath id="clip0_15_244">
<rect width="61" height="71" fill="white" transform="matrix(-1 0 0 1 61 0)"/>
</clipPath>
</defs>
</svg>
