<svg width="68" height="47" viewBox="0 0 68 47" fill="none" xmlns="http://www.w3.org/2000/svg">
<path d="M14.7233 16.75C17.622 16.75 20.4556 17.6096 22.8658 19.22C25.276 20.8305 27.1546 23.1195 28.2639 25.7976C29.3732 28.4756 29.6634 31.4225 29.0979 34.2655C28.5324 37.1086 27.1365 39.7201 25.0868 41.7698C23.0371 43.8195 20.4256 45.2154 17.5825 45.7809C14.7395 46.3464 11.7926 46.0562 9.11455 44.9469C6.43647 43.8376 4.14747 41.959 2.53702 39.5488C0.926574 37.1386 0.067 34.305 0.067 31.4063L0 29.3125C0 21.5383 3.08827 14.0826 8.58543 8.58543C14.0826 3.08827 21.5383 0 29.3125 0V8.375C26.5617 8.36761 23.8368 8.9056 21.2953 9.95787C18.7537 11.0101 16.446 12.5558 14.5055 14.5055C13.7513 15.2583 13.0556 16.0674 12.4243 16.9259C13.1739 16.8086 13.9402 16.7458 14.7191 16.7458L14.7233 16.75ZM52.4107 16.75C55.3095 16.75 58.1431 17.6096 60.5533 19.22C62.9635 20.8305 64.8421 23.1195 65.9514 25.7976C67.0607 28.4756 67.3509 31.4225 66.7854 34.2655C66.2199 37.1086 64.824 39.7201 62.7743 41.7698C60.7246 43.8195 58.1131 45.2154 55.27 45.7809C52.427 46.3464 49.4801 46.0562 46.802 44.9469C44.124 43.8376 41.835 41.959 40.2245 39.5488C38.6141 37.1386 37.7545 34.305 37.7545 31.4063L37.6875 29.3125C37.6875 21.5383 40.7758 14.0826 46.2729 8.58543C51.7701 3.08827 59.2258 0 67 0V8.375C64.2492 8.36761 61.5243 8.9056 58.9828 9.95787C56.4412 11.0101 54.1335 12.5558 52.193 14.5055C51.4388 15.2583 50.7431 16.0674 50.1118 16.9259C50.8614 16.8086 51.6277 16.7458 52.4107 16.7458V16.75Z" fill="white"/>
</svg>
