<svg width="80" height="80" viewBox="0 0 80 80" fill="none" xmlns="http://www.w3.org/2000/svg">
<path d="M22.4252 44.9715L34.2657 32.5023L4.89453 1.61552C1.76013 4.92587 0 9.40996 0 14.0848C0 18.7596 1.76013 23.2437 4.89453 26.554L22.4252 44.9715V44.9715ZM50.7923 36.9965C57.1937 40.1248 66.1892 37.9218 72.8416 30.9161C80.8329 22.5004 82.381 10.4277 76.2306 3.95076C70.1221 -2.48215 58.6581 -0.89595 50.6249 7.51969C43.9725 14.5254 41.8805 23.9985 44.8511 30.7398L4.0159 73.7433L9.91525 79.9559L38.7426 49.686L67.528 80L73.4274 73.7874L44.6419 43.4734L50.7923 36.9965V36.9965Z" fill="#716F6F"/>
</svg>
